<?xml version="1.0" encoding="UTF-8" standalone="no"?>
<!-- Created with Inkscape (http://www.inkscape.org/) -->

<svg
   width="5120mm"
   height="1440mm"
   viewBox="0 0 5120 1440"
   version="1.1"
   id="svg5"
   xml:space="preserve"
   inkscape:export-filename="SVG_Fedora.svg"
   inkscape:export-xdpi="96"
   inkscape:export-ydpi="96"
   sodipodi:docname="SVG_Fedora.svg"
   xmlns:inkscape="http://www.inkscape.org/namespaces/inkscape"
   xmlns:sodipodi="http://sodipodi.sourceforge.net/DTD/sodipodi-0.dtd"
   xmlns:xlink="http://www.w3.org/1999/xlink"
   xmlns="http://www.w3.org/2000/svg"
   xmlns:svg="http://www.w3.org/2000/svg"><sodipodi:namedview
     id="namedview7"
     pagecolor="#505050"
     bordercolor="#eeeeee"
     borderopacity="1"
     inkscape:showpageshadow="0"
     inkscape:pageopacity="0"
     inkscape:pagecheckerboard="0"
     inkscape:deskcolor="#505050"
     inkscape:document-units="mm"
     showgrid="false" /><defs
     id="defs2" /><g
     inkscape:label="Layer 1"
     inkscape:groupmode="layer"
     id="layer1"><rect
       style="fill:#00001a;fill-opacity:1;stroke-width:0.264583"
       id="rect111"
       width="5142.0117"
       height="1476.576"
       x="-13.567314"
       y="-20.350971" /><g
       id="g1964"
       transform="matrix(1.6839162,0,0,1.6839162,2335.1972,495.19719)"><path
         d="m 266.62575,133.50613 c 0,-73.52485 -59.60353,-133.1303 -133.12783,-133.1303 -73.49124,0 -133.07153,59.5554 -133.12367,133.03642 V 236.4333 c 0.03955,16.68433 13.5712,30.19087 30.26602,30.19087 h 102.91165 c 73.49975,-0.0288 133.07383,-59.61275 133.07383,-133.11804"
         id="voice"
         style="fill:#294172" /><path
         d="m 77.126289,142.09756 c 0,0 47.844751,0 47.844751,0 0,0 0,47.84478 0,47.84478 0,26.41029 -21.43445,47.84473 -47.844751,47.84473 -26.41031,0 -47.844759,-21.43444 -47.844759,-47.84473 0,-26.41031 21.434449,-47.84478 47.844759,-47.84478 z"
         id="in"
         style="fill:none;stroke:#3c6eb4;stroke-width:29.21" /><use
         transform="rotate(180,124.85576,142.1441)"
         id="finity"
         xlink:href="#in" /><path
         d="m 139.6074,127.52923 v 62.34618 c 0,34.50402 -27.97537,62.48 -62.48061,62.48 -5.23494,0 -8.95649,-0.59101 -13.80235,-1.8577 -7.06595,-1.84912 -12.84046,-7.64253 -12.84286,-14.38111 0,-8.14513 5.91236,-14.0699 14.75029,-14.0699 4.20637,0 5.73267,0.80765 11.89492,0.80765 18.19161,0 32.94764,-14.73519 32.97955,-32.92679 v -28.65657 c 0,-2.56775 -2.08663,-4.64825 -4.65867,-4.64825 l -21.66521,-0.004 c -8.07212,0 -14.59401,-6.43843 -14.59401,-14.53266 -0.0043,-8.14456 6.5888,-14.55657 14.74808,-14.55657"
         id="free"
         style="fill:#ffffff" /><use
         transform="rotate(180,124.85576,142.1441)"
         id="dom"
         xlink:href="#free" /><path
         d="m 243.65456,243.58425 c 0,0 4e-5,-5.53139 4e-5,-5.53139 l -2.52853,5.79776 c 0,0 -2.46141,-5.79776 -2.46141,-5.79776 l 4.7e-4,5.53139 h -1.4183 v -8.73492 h 1.48704 c 0,0 2.43397,5.58051 2.43397,5.58051 l 2.39711,-5.58051 h 1.50544 v 8.73492 z m -10.33302,-7.27184 v 7.27184 h -1.48213 v -7.27184 h -2.48488 v -1.46308 h 6.44946 v 1.46308"
         id="TM"
         style="fill:#3c6eb4" /></g><ellipse
       style="fill:#294172;fill-opacity:1;stroke-width:0.264583"
       id="path3222"
       cx="507.65811"
       cy="1398.2584"
       rx="653.1601"
       ry="221.45087" /><ellipse
       style="fill:#3c6eb4;fill-opacity:1;stroke-width:0.264583"
       id="path3224"
       cx="1360.6837"
       cy="1471.0094"
       rx="698.72943"
       ry="252.62988" /><ellipse
       style="fill:#294172;fill-opacity:1;stroke-width:0.264583"
       id="path3226"
       cx="2325.8367"
       cy="1448.6722"
       rx="738.70258"
       ry="223.84926" /><ellipse
       style="fill:#3c6eb4;fill-opacity:1;stroke-width:0.264583"
       id="path3234"
       cx="3742.2798"
       cy="1526.9718"
       rx="1041.6985"
       ry="273.41586" /><ellipse
       style="fill:#294172;fill-opacity:1;stroke-width:0.264583"
       id="path3242"
       cx="4531.3486"
       cy="1508.5841"
       rx="786.67023"
       ry="266.22073" /></g></svg>
